<?xml version="1.0" encoding="UTF-8"?> <svg xmlns="http://www.w3.org/2000/svg" xmlns:xlink="http://www.w3.org/1999/xlink" id="Group_6548" data-name="Group 6548" width="213.051" height="51.465" viewBox="0 0 213.051 51.465"><defs><clipPath id="clip-path"><rect id="Rectangle_93" data-name="Rectangle 93" width="213.051" height="51.465" fill="none"></rect></clipPath><clipPath id="clip-path-3"><rect id="Rectangle_86" data-name="Rectangle 86" width="2.647" height="3.165" fill="none"></rect></clipPath><clipPath id="clip-path-4"><rect id="Rectangle_87" data-name="Rectangle 87" width="3.115" height="2.705" fill="none"></rect></clipPath></defs><g id="Group_6547" data-name="Group 6547" clip-path="url(#clip-path)"><g id="Group_6546" data-name="Group 6546"><g id="Group_6545" data-name="Group 6545" clip-path="url(#clip-path)"><path id="Path_21074" data-name="Path 21074" d="M132.192,64.063a25.609,25.609,0,0,0,36.066-35.394Z" transform="translate(-80.819 -17.527)" fill="#f25b5c"></path><path id="Path_21075" data-name="Path 21075" d="M117.364,104.712a25.8,25.8,0,0,0,2.586,3.086c.02.02.041.039.061.059a25.784,25.784,0,0,1-2.626-3.165Z" transform="translate(-71.753 -64.005)" fill="#f25b5c"></path><path id="Path_21076" data-name="Path 21076" d="M213.281,16.206a25.768,25.768,0,0,0-3.037-2.644l-.021.021a25.751,25.751,0,0,1,3.116,2.684l-.058-.061" transform="translate(-128.525 -8.291)" fill="#f25b5c"></path><g id="Group_6541" data-name="Group 6541" transform="translate(84.813 7.976)" style="mix-blend-mode: multiply;isolation: isolate"><g id="Group_6540" data-name="Group 6540"><g id="Group_6539" data-name="Group 6539" clip-path="url(#clip-path-3)"><path id="Path_21077" data-name="Path 21077" d="M220.887,23.668a25.8,25.8,0,0,0-2.586-3.086c-.02-.02-.041-.039-.061-.059a25.784,25.784,0,0,1,2.626,3.165Z" transform="translate(-218.24 -20.524)" fill="#02c7bd"></path></g></g></g><g id="Group_6544" data-name="Group 6544" transform="translate(48.258 43.851)" style="mix-blend-mode: multiply;isolation: isolate"><g id="Group_6543" data-name="Group 6543"><g id="Group_6542" data-name="Group 6542" clip-path="url(#clip-path-4)"><path id="Path_21078" data-name="Path 21078" d="M124.233,112.9a25.767,25.767,0,0,0,3.037,2.644l.021-.021a25.75,25.75,0,0,1-3.116-2.684l.058.061" transform="translate(-124.175 -112.837)" fill="#02c7bd"></path></g></g></g><path id="Path_21079" data-name="Path 21079" d="M113.134,8.268A25.615,25.615,0,0,0,110.11,41.26L146.176,5.865a25.614,25.614,0,0,0-33.042,2.4" transform="translate(-64.478 -0.574)" fill="#02c7bd"></path><path id="Path_21080" data-name="Path 21080" d="M156.6,16.3a25.79,25.79,0,0,0-3.116-2.685L117.419,49.009a24.63,24.63,0,0,0,5.741,5.85l36.066-35.394A25.759,25.759,0,0,0,156.6,16.3" transform="translate(-71.787 -8.324)" fill="#144343"></path><path id="Path_21081" data-name="Path 21081" d="M248.28,89.972h37.476l-22.77-25.657L248.28,80.387Z" transform="translate(-151.792 -39.32)" fill="#f25b5c"></path><path id="Path_21082" data-name="Path 21082" d="M248.28.285V8.6l14.707,16.573L285.756.285Z" transform="translate(-151.792 -0.174)" fill="#02c7bd"></path><path id="Path_21083" data-name="Path 21083" d="M248.28,54.317l14.707-16.072L248.28,21.672Z" transform="translate(-151.792 -13.25)" fill="#144343"></path><rect id="Rectangle_88" data-name="Rectangle 88" width="15.699" height="21.074" transform="translate(21.074 29.586)" fill="#f25b5c"></rect><path id="Path_21084" data-name="Path 21084" d="M365.665,74.07a16.779,16.779,0,0,1-14.216-7.856,16.794,16.794,0,1,0,28.432,0,16.78,16.78,0,0,1-14.216,7.856" transform="translate(-213.291 -40.482)" fill="#f25b5c"></path><path id="Path_21085" data-name="Path 21085" d="M365.665,17.876a16.78,16.78,0,0,1,14.216,7.856,16.795,16.795,0,1,0-28.432,0,16.779,16.779,0,0,1,14.216-7.856" transform="translate(-213.291)" fill="#02c7bd"></path><path id="Path_21086" data-name="Path 21086" d="M369.722,61.711a16.78,16.78,0,0,0,14.216-7.856,16.79,16.79,0,0,0-28.432,0,16.779,16.779,0,0,0,14.216,7.856" transform="translate(-217.347 -28.122)" fill="#144343"></path><rect id="Rectangle_89" data-name="Rectangle 89" width="21.074" height="29.42" transform="translate(0 0.166)" fill="#02c7bd"></rect><rect id="Rectangle_90" data-name="Rectangle 90" width="21.074" height="21.074" transform="translate(0 29.586)" fill="#144343"></rect><path id="Path_21087" data-name="Path 21087" d="M468.757,50.9V61.173h-1.4V55.044a2.238,2.238,0,0,0-1.479-.61c-.906,0-1.534.61-1.534,1.867v1.756H462.99V56.3c0-1.2-.591-1.793-1.516-1.793-.887,0-1.663.629-1.663,2.108,0,1.682.961,2.709,2.772,3.69l-.942,1c-1.775-.961-3.271-2.414-3.271-4.725a3.053,3.053,0,0,1,2.976-3.346,2.19,2.19,0,0,1,2.274,1.479h.073a2.04,2.04,0,0,1,2.015-1.553,2.1,2.1,0,0,1,1.571.61h.075V50.9" transform="translate(-280.235 -31.121)" fill="#02c7bd"></path><path id="Path_21088" data-name="Path 21088" d="M491.336,50.9V61.174h-1.387V50.9" transform="translate(-299.542 -31.122)" fill="#02c7bd"></path><path id="Path_21089" data-name="Path 21089" d="M478.939,35.4l4.828,6.038H482.38L477.552,35.4" transform="translate(-291.963 -21.642)" fill="#02c7bd"></path><path id="Path_21090" data-name="Path 21090" d="M500.332,35.4l4.828,6.038h-1.387L498.945,35.4" transform="translate(-305.042 -21.642)" fill="#02c7bd"></path><path id="Path_21091" data-name="Path 21091" d="M503.915,50.9V53.99h.074a2.9,2.9,0,0,1,2.4-1.072,3.044,3.044,0,0,1,3.105,3.16,3.224,3.224,0,0,1-3.882,3.18l-.221-1.275c1.33.241,2.661-.351,2.661-1.886a1.839,1.839,0,0,0-1.941-1.922,2.151,2.151,0,0,0-2.2,2.329v4.669h-1.387V58.205h-.073a2.927,2.927,0,0,1-2.385,1.054,3.1,3.1,0,0,1-3.142-3.161,3.253,3.253,0,0,1,3.9-3.2l.222,1.275c-1.331-.222-2.662.351-2.662,1.9A1.849,1.849,0,0,0,500.329,58a2.152,2.152,0,0,0,2.2-2.329V50.9" transform="translate(-303.809 -31.121)" fill="#02c7bd"></path><rect id="Rectangle_91" data-name="Rectangle 91" width="34.959" height="1.204" transform="translate(178.092 18.579)" fill="#02c7bd"></rect><path id="Path_21092" data-name="Path 21092" d="M538.378,59.139a4.141,4.141,0,0,1-1.906.416,2.705,2.705,0,0,1-2.92-2.569c0-1.054.369-1.7,2.144-2.237l2.68-.776V50.9h-1.4v2.088l-2.181.666c-1.793.554-2.662,1.478-2.662,3.068a4.316,4.316,0,0,0,4.51,4.1,5.807,5.807,0,0,0,1.74-.26Z" transform="translate(-325.329 -31.122)" fill="#02c7bd"></path></g></g></g></svg> 